<?xml version="1.0" encoding="utf-8"?>
<!-- Generator: Adobe Illustrator 17.0.0, SVG Export Plug-In . SVG Version: 6.00 Build 0)  -->
<!DOCTYPE svg PUBLIC "-//W3C//DTD SVG 1.1//EN" "http://www.w3.org/Graphics/SVG/1.1/DTD/svg11.dtd">
<svg version="1.1" id="Warstwa_1" xmlns="http://www.w3.org/2000/svg" xmlns:xlink="http://www.w3.org/1999/xlink" x="0px" y="0px"
	 width="4000px" height="200px" viewBox="0 0 3000 200" enable-background="new 0 0 3000 200" xml:space="preserve">
<!-- <g transform="translate(600.000000,256.000000) scale(0.100000,-0.100000)"
fill="#000000" stroke="none">
<path d="M379 2001 c-46 -15 -66 -30 -82 -63 -13 -30 -13 -73 4 -427 21 -446
20 -439 105 -503 95 -72 121 -78 967 -203 431 -63 801 -115 821 -115 49 0 91
23 104 57 7 15 28 102 47 193 40 181 39 214 -8 258 -31 29 -1725 779 -1801
797 -66 16 -117 18 -157 6z m1011 -446 c481 -213 884 -396 894 -406 16 -15 17
-21 6 -33 -7 -9 -19 -16 -26 -16 -7 0 -95 36 -194 80 -99 44 -182 80 -185 80
-2 0 3 -17 12 -37 25 -60 21 -152 -11 -217 -105 -215 -426 -192 -502 36 -43
131 26 281 155 336 l44 18 -206 92 c-114 51 -209 92 -210 92 -2 0 7 -22 20
-48 122 -246 -38 -535 -317 -573 -126 -18 -250 30 -345 133 -117 126 -138 323
-50 473 49 83 159 165 241 181 19 3 34 9 34 13 0 4 -59 34 -132 67 -139 63
-167 85 -134 109 10 8 22 13 25 11 3 -2 400 -178 881 -391z"/>
<path  fill="#1ab394" d="M767 1629 c-59 -14 -110 -44 -150 -88 -51 -56 -69 -104 -70 -182 0
-107 56 -198 156 -251 60 -32 184 -32 243 -1 162 86 205 295 88 431 -61 71
-180 112 -267 91z"/>
<path fill="#61DAFB" d="M1551 1298 c-110 -54 -137 -211 -53 -302 98 -104 264 -79 323 49 77
167 -103 336 -270 253z"/>

</g> -->

  <text transform="translate(900.000000,190.000000)" style="font:bold 190px sans-serif;fill:#1ab394">Dashboard</text>
</svg>
